<svg
                  xmlns="http://www.w3.org/2000/svg"
                  viewBox="0 0 20 20"
                  fill="currentColor"
                  width="42"
                  height="42"
                  style={{ color: "#007BFF" }}
                >
                  {/* Icon Tờ Giấy */}
                  <path d="M4 2a1 1 0 0 0-1 1v18a1 1 0 0 0 1 1h12a1 1 0 0 0 1-1V7l-5-5H4zm1 2h7v4h4v12H5V4zm2 5v2h8V9H7zm0 4v2h8v-2H7zm0 4v2h5v-2H7z" />

                  {/* Icon Điện Thoại */}
                  <path d="M20 6a2 2 0 0 1 2 2v12a2 2 0 0 1-2 2h-3a1 1 0 0 1-.707-.293l-3.707-3.707a1 1 0 0 1 0-1.414l.707-.707a1 1 0 0 1 1.414 0L15 17h3V9h-2a3 3 0 0 1-2.121-.879l-.707-.707A3 3 0 0 1 12.5 6l.707-.707A3 3 0 0 1 15 4h3a2 2 0 0 1 2 2z" />
                </svg>